<?xml version="1.0" standalone="no"?>
<!DOCTYPE svg PUBLIC "-//W3C//DTD SVG 20010904//EN"
 "http://www.w3.org/TR/2001/REC-SVG-20010904/DTD/svg10.dtd">
<svg version="1.0" xmlns="http://www.w3.org/2000/svg"
 width="200.000000pt" height="200.000000pt" viewBox="0 0 200.000000 200.000000"
 preserveAspectRatio="xMidYMid meet">
<metadata>
Created by potrace 1.14, written by Peter Selinger 2001-2017
</metadata>
<g transform="translate(0.000000,200.000000) scale(0.100000,-0.100000)"
fill="#000000" stroke="none">
<path d="M0 1000 l0 -1000 1000 0 1000 0 0 1000 0 1000 -1000 0 -1000 0 0
-1000z m405 320 c10 -31 -2 -40 -55 -40 -59 0 -58 2 -62 -147 -3 -95 -5 -104
-27 -119 l-24 -17 24 -20 c22 -18 24 -27 27 -131 2 -61 8 -117 14 -123 6 -7
30 -13 54 -13 47 0 59 -10 49 -41 -7 -20 -12 -21 -72 -16 -93 7 -97 13 -103
159 -5 114 -6 121 -29 137 -14 9 -34 23 -45 32 -19 16 -19 17 17 40 49 33 57
55 57 165 0 134 14 152 117 153 43 1 53 -2 58 -19z m1346 -11 c15 -20 19 -44
19 -134 l1 -110 39 -30 c21 -16 39 -34 39 -40 0 -5 -17 -23 -39 -38 l-40 -28
0 -112 c-1 -143 -10 -157 -105 -165 l-65 -5 0 32 c0 29 2 31 36 31 70 0 74 8
74 129 0 102 1 109 25 131 l25 24 -25 26 c-23 24 -25 33 -25 131 0 68 -4 109
-12 117 -7 7 -31 12 -55 12 -42 0 -43 1 -43 31 l0 32 67 -6 c54 -4 70 -9 84
-28z m-1173 -269 c35 -33 28 -76 -15 -99 -29 -15 -28 -15 -57 13 -32 29 -33
52 -4 83 27 28 48 29 76 3z m229 -2 c29 -27 29 -55 1 -85 -26 -28 -38 -29 -72
-2 -32 25 -33 55 -4 86 27 29 45 29 75 1z m232 -2 c29 -30 24 -63 -11 -89
l-28 -21 -27 21 c-36 26 -41 65 -12 92 30 27 50 27 78 -3z m223 7 c47 -42 1
-131 -54 -102 -44 23 -51 66 -16 99 26 24 45 25 70 3z m226 1 c50 -35 13 -123
-46 -107 -49 12 -59 87 -15 112 25 14 35 14 61 -5z"/>
</g>
</svg>
